<svg width="200" height="200" viewBox="0 0 200 200" fill="none" xmlns="http://www.w3.org/2000/svg">
  <rect width="200" height="200" rx="30" fill="#4361EE" fill-opacity="0.1"/>
  <path d="M148.293 67.3431C157.098 76.1479 162.25 88.0772 162.25 100.857C162.25 113.637 157.098 125.566 148.293 134.371C139.488 143.176 127.559 148.328 114.779 148.328C102 148.328 90.0704 143.176 81.2656 134.371" stroke="#4361EE" stroke-width="10" stroke-linecap="round"/>
  <path d="M51.7071 132.657C42.9023 123.852 37.75 111.923 37.75 99.1429C37.75 86.3632 42.9023 74.4338 51.7071 65.629C60.5119 56.8242 72.4413 51.6719 85.221 51.6719C98.0007 51.6719 109.93 56.8242 118.735 65.629" stroke="#4CC9F0" stroke-width="10" stroke-linecap="round"/>
  <circle cx="100" cy="100" r="23" fill="#3A0CA3"/>
  <path d="M94.6464 89.6464C95.1083 89.1845 95.8584 89.1845 96.3203 89.6464L108.536 101.862C108.998 102.324 108.998 103.074 108.536 103.536C108.074 103.998 107.324 103.998 106.862 103.536L95.4833 92.1569L84.1042 103.536C83.6423 103.998 82.8922 103.998 82.4303 103.536C81.9684 103.074 81.9684 102.324 82.4303 101.862L94.6464 89.6464ZM94.3 110L94.3 90.3535L96.7 90.3535L96.7 110L94.3 110Z" fill="white"/>
  <path d="M105.354 110.354C104.892 110.815 104.142 110.815 103.68 110.354L91.4635 98.1375C91.0016 97.6756 91.0016 96.9254 91.4635 96.4635C91.9254 96.0016 92.6755 96.0016 93.1374 96.4635L104.517 107.843L115.896 96.4635C116.358 96.0016 117.108 96.0016 117.57 96.4635C118.032 96.9254 118.032 97.6756 117.57 98.1375L105.354 110.354ZM105.7 90L105.7 109.646L103.3 109.646L103.3 90L105.7 90Z" fill="white"/>
</svg>
